<?xml version="1.0" standalone="no"?>
<!DOCTYPE svg PUBLIC "-//W3C//DTD SVG 20010904//EN"
 "http://www.w3.org/TR/2001/REC-SVG-20010904/DTD/svg10.dtd">
<svg version="1.0" xmlns="http://www.w3.org/2000/svg"
 width="512.000000pt" height="512.000000pt" viewBox="0 0 512.000000 512.000000"
 preserveAspectRatio="xMidYMid meet">
<metadata>
Created by potrace 1.11, written by Peter Selinger 2001-2013
</metadata>
<g transform="translate(0.000000,512.000000) scale(0.100000,-0.100000)"
fill="#000000" stroke="none">
<path d="M13 5105 c-10 -11 -13 -535 -13 -2545 0 -2181 2 -2533 14 -2546 22
-21 5070 -21 5092 0 21 22 21 5070 0 5092 -22 21 -5075 21 -5093 -1z m4704
-388 c4 -5 4 -4309 0 -4314 -5 -4 -4309 -4 -4314 0 -5 5 -4 4307 1 4315 4 7
4306 5 4313 -1z"/>
<path d="M1784 4031 c-81 -21 -179 -115 -213 -204 -59 -159 13 -339 167 -414
48 -23 70 -28 137 -28 102 0 171 31 243 109 65 71 87 140 79 245 -7 91 -31
145 -92 206 -66 66 -116 88 -210 91 -44 2 -94 -1 -111 -5z"/>
<path d="M3119 3951 c-77 -11 -212 -57 -278 -94 -68 -38 -190 -153 -230 -215
-74 -116 -102 -289 -64 -397 23 -65 102 -146 159 -163 140 -41 262 12 315 136
36 83 19 170 -66 344 -32 68 -45 105 -41 121 18 73 113 127 221 127 100 0 156
-22 219 -84 101 -102 131 -201 131 -436 0 -229 -21 -306 -151 -558 -137 -265
-153 -315 -161 -519 l-6 -153 41 0 c47 0 62 17 62 72 0 57 29 170 57 226 31
62 125 154 232 227 254 174 408 316 468 430 99 190 107 395 20 573 -59 122
-214 262 -338 308 -126 46 -182 55 -359 59 -96 2 -200 0 -231 -4z"/>
<path d="M1853 3093 c-8 -3 -13 -25 -13 -57 0 -68 -33 -198 -64 -251 -35 -59
-136 -150 -267 -240 -303 -209 -416 -333 -480 -527 -28 -85 -31 -256 -5 -343
94 -313 358 -475 777 -475 275 0 468 68 613 215 115 117 161 226 161 380 0 85
-3 107 -23 145 -56 107 -140 155 -258 148 -88 -6 -143 -39 -189 -112 -26 -43
-30 -58 -29 -120 0 -84 11 -117 77 -253 56 -117 57 -137 1 -189 -40 -38 -129
-74 -182 -74 -55 0 -127 25 -178 62 -142 102 -198 311 -164 613 15 128 42 207
140 400 105 207 137 285 155 378 15 80 23 277 11 295 -7 12 -59 15 -83 5z"/>
<path d="M3145 1766 c-57 -18 -82 -33 -132 -79 -72 -66 -103 -137 -103 -239 0
-129 70 -242 185 -298 71 -35 208 -36 277 -2 60 30 123 92 156 157 23 44 26
62 26 145 0 78 -3 102 -21 136 -79 150 -243 226 -388 180z"/>
</g>
</svg>
