<?xml version="1.0" standalone="no"?>
<!DOCTYPE svg PUBLIC "-//W3C//DTD SVG 20010904//EN"
 "http://www.w3.org/TR/2001/REC-SVG-20010904/DTD/svg10.dtd">
<svg version="1.0" xmlns="http://www.w3.org/2000/svg"
 width="260.000000pt" height="260.000000pt" viewBox="0 0 260.000000 260.000000"
 preserveAspectRatio="xMidYMid meet">
<metadata>
Created by potrace 1.11, written by Peter Selinger 2001-2013
</metadata>
<g transform="translate(0.000000,260.000000) scale(0.100000,-0.100000)"
fill="#000000" stroke="none">
<path d="M5 1300 l0 -1290 1295 0 1295 0 0 1290 0 1290 -1295 0 -1295 0 0
-1290z m2395 0 l0 -1100 -1100 0 -1100 0 0 1100 0 1100 1100 0 1100 0 0 -1100z"/>
<path d="M882 2033 c-108 -53 -122 -206 -26 -280 93 -70 236 -13 257 103 23
127 -116 234 -231 177z"/>
<path d="M1563 1999 c-154 -30 -273 -155 -273 -287 0 -64 20 -106 63 -132 61
-38 142 -18 173 42 21 41 14 99 -20 168 -15 29 -26 65 -24 78 7 55 113 91 175
59 44 -23 91 -81 103 -129 15 -54 14 -204 -1 -260 -6 -24 -38 -98 -70 -164
-59 -120 -79 -191 -79 -281 0 -36 3 -43 20 -43 13 0 21 9 25 28 27 137 36 151
179 257 133 98 179 144 213 210 34 66 42 171 19 243 -20 60 -81 132 -141 167
-79 47 -247 67 -362 44z"/>
<path d="M940 1547 c0 -49 -32 -129 -66 -167 -20 -22 -79 -71 -133 -109 -170
-121 -226 -206 -226 -341 1 -58 6 -86 25 -124 66 -136 213 -206 410 -193 154
10 255 63 317 166 57 95 54 187 -7 246 -27 26 -39 30 -86 30 -50 0 -59 -3 -85
-33 -41 -45 -40 -109 2 -199 36 -78 32 -100 -26 -128 -80 -37 -178 4 -217 93
-26 57 -34 182 -19 264 7 37 35 108 66 170 67 133 85 193 85 280 0 61 -2 68
-20 68 -14 0 -20 -7 -20 -23z"/>
<path d="M1575 886 c-111 -50 -128 -207 -30 -281 119 -91 289 21 255 169 -21
95 -136 152 -225 112z"/>
</g>
</svg>
